<svg width="241" height="74" viewBox="0 0 241 74" fill="none" xmlns="http://www.w3.org/2000/svg">
<path d="M63.9739 18.7786V44.9078C63.9739 55.2784 55.5339 63.6863 45.1237 63.6863H43.217L33.4805 73.3795C33.0992 73.7594 32.5717 74 31.987 74C31.4467 74 30.9574 73.8037 30.5824 73.4745L30.4172 73.3099L30.4108 73.3036L20.7569 63.6863H18.8439C8.44003 63.6863 0 55.2784 0 44.9078V18.7786C0 8.40794 8.44003 0 18.8503 0H45.1237C55.5339 0 63.9739 8.40794 63.9739 18.7786Z" fill="#FFD666"/>
<path d="M14.895 36.197C13.0392 36.197 11.9814 38.3036 13.0582 39.8248C17.2449 45.7501 24.1677 49.6133 31.99 49.6133C39.8123 49.6133 46.7289 45.7437 50.9155 39.8248C51.9923 38.3036 50.9345 36.197 49.0787 36.197H14.895Z" fill="white"/>
<path d="M25.764 27.2298H14.5658V21.6036C14.5658 18.4977 17.074 15.9774 20.1649 15.9774C23.2558 15.9774 25.764 18.4977 25.764 21.6036V27.2298Z" fill="white"/>
<path d="M49.4148 27.2298H38.2166V21.6036C38.2166 18.4977 40.7248 15.9774 43.8157 15.9774C46.9066 15.9774 49.4148 18.4977 49.4148 21.6036V27.2298Z" fill="white"/>
<path fill-rule="evenodd" clip-rule="evenodd" d="M105.979 22.5465C103.659 22.5465 100.906 23.0384 97.8972 26.5264V16.7652C97.8972 14.2993 95.8958 12.2934 93.4356 12.2934C90.9753 12.2934 88.9739 14.2993 88.9739 16.7652V48.5976C88.9739 51.0635 90.9753 53.0694 93.4356 53.0694C95.8958 53.0694 97.8972 51.0635 97.8972 48.5976V36.2428C97.8972 32.691 99.5799 30.7298 102.646 30.7298C105.648 30.7298 107.228 32.6335 107.228 36.2428V48.5976C107.228 51.0635 109.23 53.0694 111.69 53.0694C114.15 53.0694 116.152 51.0635 116.152 48.5976V33.6492C116.145 26.6988 112.347 22.5465 105.979 22.5465ZM131.602 22.7638C127.969 22.7638 125.088 23.2366 122.265 24.297C120.799 24.8464 119.817 26.2646 119.817 27.8233C119.817 29.9058 121.468 31.5348 123.578 31.5348C124.011 31.5348 124.374 31.4709 124.871 31.3049C126.586 30.7682 128.396 30.5127 130.417 30.5127C135.21 30.5127 136.229 33.1638 136.242 35.4061C134.579 34.8631 132.482 34.3648 129.556 34.3648C121.933 34.3648 117.561 37.8591 117.561 43.9599V44.0685C117.561 49.5815 121.691 53.2867 127.835 53.2867C131.296 53.2867 134.069 52.2326 136.28 50.0734C136.657 51.6513 138.167 53.0759 140.487 53.0759C142.928 53.0759 144.84 51.185 144.84 48.7702V35.5913C144.84 31.4454 143.757 28.2513 141.609 26.1049C139.391 23.8881 136.026 22.7638 131.602 22.7638ZM130.308 46.8793C127.778 46.8793 126.21 45.6783 126.21 43.7427V43.6341C126.21 41.3279 128.135 40.012 131.494 40.012C133.215 40.012 134.929 40.3506 136.351 40.9638V42.184C136.351 44.9437 133.865 46.8793 130.308 46.8793ZM156.797 26.6034C159.105 23.8756 161.947 22.5469 165.466 22.5469C172.177 22.5469 178.965 27.8044 178.965 37.8594V37.968C178.965 42.5994 177.544 46.5218 174.861 49.3198C172.407 51.8815 169.073 53.2869 165.466 53.2869C161.992 53.2869 159.232 52.0987 156.842 49.569V57.2348C156.842 59.7007 154.841 61.7066 152.38 61.7066C149.92 61.7066 147.919 59.7007 147.919 57.2348V27.2358C147.919 24.77 149.92 22.7641 152.38 22.7641C154.63 22.7641 156.491 24.4378 156.797 26.6034ZM170.048 37.8594C170.048 33.5218 167.174 30.2446 163.362 30.2446C159.525 30.2446 156.734 33.4451 156.734 37.8594V37.968C156.734 42.3822 159.519 45.5827 163.362 45.5827C167.238 45.5827 170.048 42.3822 170.048 37.968V37.8594ZM198.571 22.5469C195.053 22.5469 192.21 23.8756 189.903 26.6034C189.597 24.4378 187.736 22.7641 185.486 22.7641C183.025 22.7641 181.024 24.77 181.024 27.2358V57.2348C181.024 59.7007 183.025 61.7066 185.486 61.7066C187.946 61.7066 189.947 59.7007 189.947 57.2348V49.569C192.337 52.0987 195.097 53.2869 198.571 53.2869C202.178 53.2869 205.512 51.8815 207.966 49.3198C210.649 46.5218 212.071 42.5994 212.071 37.968V37.8594C212.071 27.8044 205.283 22.5469 198.571 22.5469ZM196.468 30.2446C200.279 30.2446 203.154 33.5218 203.154 37.8594V37.968C203.154 42.3822 200.343 45.5827 196.468 45.5827C192.624 45.5827 189.839 42.3822 189.839 37.968V37.8594C189.839 33.4451 192.631 30.2446 196.468 30.2446ZM231.976 26.1369C232.805 23.9266 234.283 22.7639 236.253 22.7639C238.63 22.7639 240.498 24.5845 240.491 26.8971C240.491 27.5678 240.275 28.5388 240.083 28.986L230.019 53.2101C227.489 59.3492 224.85 61.5275 219.936 61.5275C218.202 61.5275 216.87 61.2976 215.34 60.7482C214.289 60.3649 212.517 59.3683 212.517 57.0047C212.517 54.6794 214.346 53.2931 216.112 53.2931C216.813 53.2931 217.233 53.4145 217.571 53.5295C218.266 53.7467 218.648 53.8361 219.177 53.8361C220.516 53.8361 221.077 53.6189 221.752 52.3221L221.956 51.8366L212.166 29.101C211.943 28.5388 211.707 27.67 211.707 27.0632C211.707 24.6101 213.6 22.7575 216.112 22.7575C218.183 22.7575 219.585 23.8435 220.388 26.0794L226.284 41.9668L231.976 26.1369Z" fill="white"/>
</svg>
